<svg id="Layer_1" data-name="Layer 1" xmlns="http://www.w3.org/2000/svg" viewBox="0 0 434.98 270.43"><title>banner-bg</title><path d="M32.63,114.68h435V384.19c-2.88-.38-5.74-.92-8.63-1.11-6.43-.4-12.82.31-19.2,1s-13,1.42-19.54.81c-8.81-.81-16-4.49-21.4-11.64-.9-1.21-1.75-2.46-2.68-3.65-4.57-5.85-10.48-8.79-18-8.33a51.1,51.1,0,0,0-11.31,2.2c-5.62,1.64-11.19,3.45-16.83,5a42.36,42.36,0,0,1-18.4,1.18c-7.51-1.32-13.73-5.05-19.22-10.2-3.85-3.61-6.94-7.84-10.12-12-11.61-15.27-27.08-22.35-46.18-21.18-7.71.47-15.39,1.55-23.07,2.41-5.64.64-11.27,1.22-16.94.55-6.19-.73-11.42-3.26-15.29-8.28-.78-1-1.47-2.1-2.18-3.17a21,21,0,0,0-14.14-9.54,36.6,36.6,0,0,0-10.6-.38c-7.17.76-14.32,1.69-21.49,2.45a84.53,84.53,0,0,1-22.91-.45,70.44,70.44,0,0,1-33.4-15.51c-4.52-3.7-8.68-7.84-13-11.76-14-12.67-30.07-21.67-48.6-26-1.83-.43-1.83-.43-1.83-2.27V184.65Q32.62,149.67,32.63,114.68Z" transform="translate(-32.62 -114.68)"/></svg>