<svg id="Layer_1" data-name="Layer 1" xmlns="http://www.w3.org/2000/svg" viewBox="0 0 500 267.72"><title>mask2B</title><path d="M500,67.92v199.8h-2.08c-2.55-.19-5.1-.34-7.63-.57-10.56-1-19.88-3.83-27.48-9.53a42.51,42.51,0,0,0-8-4.52c-7.93-3.54-16.78-4.9-25.89-5.1-9.36-.21-18.74,0-28.1.07a150.14,150.14,0,0,1-21-.9c-6.92-.91-13.39-2.67-18.46-6.38-5.94-4.34-13.07-6.21-21.27-6.3a155.87,155.87,0,0,0-20,1.47,209.93,209.93,0,0,1-25.49,1.88c-14.1.07-27.7-3.88-38-11a70,70,0,0,0-17.6-8.77,104.91,104.91,0,0,0-32.15-4.94c-9.54-.11-19.08.23-28.62.43-7.29.15-14.58.42-21.84-.3-7.08-.69-13.43-2.44-18.36-6.49a21.47,21.47,0,0,0-7.86-3.69,46,46,0,0,0-12.61-1.73c-9.63,0-19.25.25-28.88.46a227,227,0,0,1-28.7-1,136.84,136.84,0,0,1-46-13c-4.52-2.21-9.35-4-14-6.05V.36l1.17,0c4.36.23,8.73.7,13.09.65C22.15,1,30,.57,37.92.27a176.61,176.61,0,0,1,24,.28c10.5,1,19.78,3.87,27.34,9.55a42.19,42.19,0,0,0,8,4.52C105.2,18.11,114,19.49,123,19.69c9.44.22,18.91,0,28.36-.06a149.75,149.75,0,0,1,20.87.92c7,.91,13.47,2.68,18.58,6.41,5.87,4.28,12.91,6.16,21,6.28,7.43.11,14.7-.83,22-1.66a189.85,189.85,0,0,1,24.46-1.66c13.79.07,27,3.95,37.13,10.87A80.15,80.15,0,0,0,303,45.42c11.36,6,24.33,8.38,38,9.08,11,.57,21.94.08,32.91-.28a166.57,166.57,0,0,1,22,.3c7,.7,13.23,2.44,18.12,6.42a23.41,23.41,0,0,0,9.56,4.13,64.06,64.06,0,0,0,15.31,1.48c8.19-.08,16.39-.38,24.58-.59A193.12,193.12,0,0,1,500,67.92Z" transform="translate(0 0)"/></svg>