<svg id="Layer_1" data-name="Layer 1" xmlns="http://www.w3.org/2000/svg" viewBox="0 0 435 196.96"><title>mask1C</title><path d="M0,0V105H0q0,11.9,0,23.81v23.7c0,.62,0,.62,1.83.77a225.49,225.49,0,0,1,48.6,8.84c4.32,1.33,8.48,2.74,13,4a157.65,157.65,0,0,0,33.4,5.28c7.61.4,15.28.45,22.91.15,7.17-.26,14.32-.57,21.49-.84,3.53-.13,7.09-.08,10.6.14,5.85.35,11,1.53,14.14,3.24.71.36,1.4.74,2.18,1.08,3.87,1.69,9.1,2.55,15.29,2.8,5.65.16,11.31.1,16.94-.19,7.68-.29,15.36-.66,23.07-.82,19.1-.4,34.57,2,46.18,7.21a96.5,96.5,0,0,0,10.12,4.08A78.2,78.2,0,0,0,299,191.72a122.66,122.66,0,0,0,18.4-.41c5.64-.52,11.21-1.14,16.83-1.7,3.72-.39,7.5-.64,11.31-.74,7.52-.16,13.43.84,18,2.83.93.4,1.78.83,2.68,1.24,5.4,2.43,12.59,3.68,21.4,4,6.52.13,13.05,0,19.54-.28s12.79-.41,19.2-.33c2.89.06,5.75.24,8.63.37V0Z" transform="translate(0.01)"/></svg>