<svg id="Layer_1" data-name="Layer 1" xmlns="http://www.w3.org/2000/svg" viewBox="0 0 435 197"><title>mask1B</title><path d="M0,0H435V196.32c-2.88-.27-5.74-.67-8.63-.8a153.71,153.71,0,0,0-19.2.72,132.27,132.27,0,0,1-19.54.59c-8.81-.59-16-3.27-21.4-8.48-.9-.88-1.75-1.79-2.68-2.65-4.57-4.27-10.48-6.41-18-6.07a68.32,68.32,0,0,0-11.31,1.6c-5.62,1.2-11.19,2.51-16.83,3.64a57.6,57.6,0,0,1-18.4.86,43.08,43.08,0,0,1-19.22-7.43,80.59,80.59,0,0,1-10.12-8.74c-11.61-11.12-27.08-16.28-46.18-15.43-7.71.34-15.39,1.13-23.07,1.76a100.88,100.88,0,0,1-16.94.4c-6.19-.53-11.42-2.38-15.29-6-.78-.73-1.47-1.53-2.18-2.31-3.15-3.67-8.29-6.2-14.14-6.95a50.08,50.08,0,0,0-10.6-.28c-7.17.56-14.32,1.23-21.49,1.79a116.91,116.91,0,0,1-22.91-.33,84.2,84.2,0,0,1-33.4-11.3c-4.52-2.7-8.68-5.71-13-8.57a125.49,125.49,0,0,0-48.6-18.94c-1.83-.31-1.83-.31-1.83-1.65V51Q0,25.48,0,0Z" transform="translate(-0.01)"/></svg>