<svg id="Layer_1" data-name="Layer 1" xmlns="http://www.w3.org/2000/svg" viewBox="0 0 435 224.43"><title>mask3B</title><path d="M435,270.43H0V46.77c2.88.32,5.74.76,8.63.92a136.76,136.76,0,0,0,19.2-.83c6.38-.57,13-1.18,19.54-.67,8.81.67,16,3.73,21.4,9.66.9,1,1.75,2,2.68,3,4.57,4.85,10.48,7.29,18,6.91A60.35,60.35,0,0,0,100.77,64c5.62-1.37,11.19-2.87,16.83-4.15a50.58,50.58,0,0,1,18.4-1,40.15,40.15,0,0,1,19.22,8.46,85.14,85.14,0,0,1,10.12,10C177,89.93,192.42,95.81,211.52,94.84c7.71-.39,15.39-1.29,23.07-2a88,88,0,0,1,16.94-.46c6.19.61,11.42,2.71,15.29,6.87.78.83,1.47,1.74,2.18,2.63a21.54,21.54,0,0,0,14.14,7.92,43.71,43.71,0,0,0,10.6.31c7.17-.63,14.32-1.4,21.49-2a101.46,101.46,0,0,1,22.91.38,77.44,77.44,0,0,1,33.4,12.87c4.52,3.07,8.68,6.5,13,9.76a116.94,116.94,0,0,0,48.6,21.57c1.83.36,1.83.36,1.83,1.89v57.81Q435,241.4,435,270.43Z" transform="translate(-0.01 -46)"/></svg>