<svg id="Layer_1" data-name="Layer 1" xmlns="http://www.w3.org/2000/svg" viewBox="0 0 500 363"><title>blog-bg</title><path d="M500,160.23V431.14h-2.08c-2.55-.26-5.1-.46-7.63-.78-10.56-1.32-19.88-5.19-27.48-12.92a41.49,41.49,0,0,0-8-6.13c-7.93-4.79-16.78-6.64-25.89-6.91-9.36-.28-18.74,0-28.1.09a111.11,111.11,0,0,1-21-1.21c-6.92-1.24-13.39-3.63-18.46-8.66-5.94-5.88-13.07-8.41-21.27-8.54-6.77-.11-13.41.95-20,2-8.45,1.31-16.89,2.62-25.49,2.54a54.72,54.72,0,0,1-37.95-14.94,65.21,65.21,0,0,0-17.6-11.89,80.14,80.14,0,0,0-32.15-6.7c-9.54-.15-19.08.32-28.62.59-7.29.2-14.58.56-21.84-.41-7.08-.94-13.43-3.31-18.36-8.8a19.62,19.62,0,0,0-7.86-5,34.81,34.81,0,0,0-12.61-2.35c-9.63.07-19.25.34-28.88.62a166.91,166.91,0,0,1-28.7-1.31A111.1,111.1,0,0,1,14,322.75c-4.52-3-9.35-5.48-14-8.2V68.63l1.17.07c4.36.31,8.73.94,13.09.87,7.89-.13,15.78-.66,23.66-1.07s16-.67,24,.39c10.5,1.4,19.78,5.24,27.34,12.94a40.87,40.87,0,0,0,8,6.13C105.2,92.7,114,94.56,123,94.84c9.44.29,18.91,0,28.36-.08A110.56,110.56,0,0,1,172.23,96c7,1.23,13.47,3.63,18.58,8.69,5.87,5.81,12.91,8.35,21,8.52,7.43.15,14.7-1.12,22-2.25,8.11-1.26,16.22-2.41,24.46-2.25a55,55,0,0,1,37.13,14.74,81.71,81.71,0,0,0,7.63,6.27c11.36,8.09,24.33,11.36,38,12.32,11,.77,21.94.1,32.91-.38,7.33-.32,14.66-.6,22,.4,7,.95,13.23,3.31,18.12,8.71a21,21,0,0,0,9.56,5.6,47.85,47.85,0,0,0,15.31,2c8.19-.11,16.39-.51,24.58-.79C475.76,157.09,488,157.6,500,160.23Z" transform="translate(0 -68.14)"/></svg>