<svg id="Layer_1" data-name="Layer 1" xmlns="http://www.w3.org/2000/svg" viewBox="0 0 1296.43 805.99"><title>Untitled-1</title><path d="M-.43,0H1296V803.23c-8.58-1.13-17.11-2.74-25.72-3.3-19.16-1.2-38.21.92-57.22,3s-38.75,4.23-58.24,2.41c-26.25-2.41-47.68-13.38-63.77-34.69-2.69-3.61-5.22-7.33-8-10.88-13.62-17.43-31.24-26.2-53.65-24.83a152.37,152.37,0,0,0-33.7,6.56c-16.75,4.89-33.35,10.28-50.16,14.9a126.14,126.14,0,0,1-54.84,3.52c-22.38-3.93-40.92-15-57.28-30.4-11.48-10.76-20.68-23.36-30.16-35.76-34.6-45.51-80.71-66.61-137.63-63.13-23,1.41-45.87,4.62-68.76,7.19-16.81,1.9-33.59,3.63-50.48,1.64-18.45-2.18-34-9.72-45.57-24.68-2.33-3-4.38-6.26-6.5-9.45a62.58,62.58,0,0,0-42.14-28.43,109,109,0,0,0-31.59-1.13c-21.37,2.26-42.68,5-64.05,7.3a252.28,252.28,0,0,1-68.28-1.34,209.91,209.91,0,0,1-99.54-46.23c-13.47-11-25.87-23.36-38.74-35C108.26,462.67,60.37,435.85,5.15,423c-5.46-1.28-5.46-1.28-5.46-6.77V208.55Q-.46,104.28-.43,0Z" transform="translate(0.43 -0.01)"/></svg>