<svg id="Layer_1" data-name="Layer 1" xmlns="http://www.w3.org/2000/svg" viewBox="0 0 500 228.64"><title>footer-bg</title><path d="M500,265.37v99.21H0V136c.38.35.78.68,1.13,1.05a35.69,35.69,0,0,0,14.77,9.67,47.39,47.39,0,0,0,20.18,2.13c7.94-.8,15.84-1.94,23.73-3.1,9.5-1.38,19-2.79,28.63-1.93a44.21,44.21,0,0,1,27.05,11.74,67.25,67.25,0,0,1,9.56,11.65c9.78,14.43,23.32,22.1,40.82,22.79,8.8.35,17.5-.63,26.22-1.52,8.38-.86,16.75-1.71,25.19-.9,10.87,1.05,20,5.47,26.91,14.07,1.76,2.2,3.32,4.56,5.09,6.75,6,7.47,13.81,11.07,23.49,10.48,6.21-.38,12.11-2.1,18-3.81,8-2.3,15.95-4.83,24.06-6.69A46.64,46.64,0,0,1,342.52,210a52.28,52.28,0,0,1,20.26,14.25c3.8,4.21,7.24,8.75,10.71,13.25,15.2,19.72,35.22,28.95,60.07,28,9.39-.35,18.66-1.64,27.95-2.85,6.93-.9,13.86-1.82,20.87-1.64C488.56,261.17,494.56,262.15,500,265.37Z" transform="translate(0 -135.95)"/></svg>